<?xml version="1.0" encoding="UTF-8"?>
<svg xmlns="http://www.w3.org/2000/svg" xmlns:xlink="http://www.w3.org/1999/xlink" width="20px" height="20px" viewBox="0 0 20 20" version="1.1">
<g id="surface1">
<path style=" stroke:none;fill-rule:nonzero;fill:rgb(14.901961%,19.607843%,41.960784%);fill-opacity:1;" d="M 2.5 4.375 C 2.5 3.339844 3.339844 2.5 4.375 2.5 L 15.625 2.5 C 16.660156 2.5 17.5 3.339844 17.5 4.375 L 17.5 10.019531 C 17.113281 9.769531 16.695312 9.570312 16.25 9.429688 L 16.25 4.375 C 16.25 4.03125 15.96875 3.75 15.625 3.75 L 4.375 3.75 C 4.03125 3.75 3.75 4.03125 3.75 4.375 L 3.75 15.625 C 3.75 15.96875 4.03125 16.25 4.375 16.25 L 9.429688 16.25 C 9.570312 16.695312 9.769531 17.113281 10.019531 17.5 L 4.375 17.5 C 3.339844 17.5 2.5 16.660156 2.5 15.625 Z M 2.5 4.375 "/>
<path style=" stroke:none;fill-rule:nonzero;fill:rgb(14.901961%,19.607843%,41.960784%);fill-opacity:1;" d="M 8.984375 6.433594 C 9.226562 6.675781 9.226562 7.074219 8.984375 7.316406 L 7.316406 8.984375 C 7.074219 9.226562 6.675781 9.226562 6.433594 8.984375 L 5.601562 8.148438 C 5.355469 7.90625 5.355469 7.511719 5.601562 7.265625 C 5.84375 7.023438 6.238281 7.023438 6.484375 7.265625 L 6.875 7.65625 L 8.101562 6.433594 C 8.34375 6.1875 8.738281 6.1875 8.984375 6.433594 Z M 8.984375 6.433594 "/>
<path style=" stroke:none;fill-rule:nonzero;fill:rgb(14.901961%,19.607843%,41.960784%);fill-opacity:1;" d="M 8.984375 11.015625 C 9.226562 11.261719 9.226562 11.65625 8.984375 11.898438 L 7.316406 13.566406 C 7.074219 13.8125 6.675781 13.8125 6.433594 13.566406 L 5.601562 12.734375 C 5.355469 12.488281 5.355469 12.09375 5.601562 11.851562 C 5.84375 11.605469 6.238281 11.605469 6.484375 11.851562 L 6.875 12.242188 L 8.101562 11.015625 C 8.34375 10.773438 8.738281 10.773438 8.984375 11.015625 Z M 8.984375 11.015625 "/>
<path style=" stroke:none;fill-rule:nonzero;fill:rgb(14.901961%,19.607843%,41.960784%);fill-opacity:1;" d="M 14.582031 10 C 17.113281 10 19.167969 12.050781 19.167969 14.582031 C 19.167969 17.113281 17.113281 19.167969 14.582031 19.167969 C 12.050781 19.167969 10 17.113281 10 14.582031 C 10 12.050781 12.050781 10 14.582031 10 Z M 15 17.085938 L 15 15 L 17.085938 15 C 17.316406 15 17.503906 14.8125 17.503906 14.582031 C 17.503906 14.351562 17.316406 14.167969 17.085938 14.167969 L 15 14.167969 L 15 12.082031 C 15 11.851562 14.8125 11.667969 14.582031 11.667969 C 14.351562 11.667969 14.167969 11.851562 14.167969 12.082031 L 14.167969 14.167969 L 12.082031 14.167969 C 11.851562 14.167969 11.664062 14.351562 11.664062 14.582031 C 11.664062 14.8125 11.851562 15 12.082031 15 L 14.167969 15 L 14.167969 17.085938 C 14.167969 17.316406 14.355469 17.503906 14.585938 17.503906 C 14.8125 17.503906 15 17.316406 15 17.085938 Z M 15 17.085938 "/>
<path style=" stroke:none;fill-rule:nonzero;fill:rgb(14.901961%,19.607843%,41.960784%);fill-opacity:1;" d="M 11.042969 7.082031 C 10.695312 7.082031 10.417969 7.363281 10.417969 7.707031 C 10.417969 8.054688 10.695312 8.332031 11.042969 8.332031 L 13.957031 8.332031 C 14.304688 8.332031 14.582031 8.054688 14.582031 7.707031 C 14.582031 7.363281 14.304688 7.082031 13.957031 7.082031 Z M 11.042969 7.082031 "/>
</g>
</svg>
