<?xml version="1.0" encoding="UTF-8"?>
<svg xmlns="http://www.w3.org/2000/svg" xmlns:xlink="http://www.w3.org/1999/xlink" width="20px" height="20px" viewBox="0 0 20 20" version="1.1">
<g id="surface1">
<path style=" stroke:none;fill-rule:evenodd;fill:rgb(7.058824%,28.627451%,43.921569%);fill-opacity:1;" d="M 7.667969 0 L 7.890625 0 C 9.667969 0 11.109375 1.441406 11.109375 3.222656 L 11.109375 4.554688 C 11.109375 6.335938 9.667969 7.777344 7.890625 7.777344 L 7.667969 7.777344 C 5.886719 7.777344 4.445312 6.335938 4.445312 4.554688 L 4.445312 3.222656 C 4.445312 1.441406 5.886719 0 7.667969 0 Z M 16.457031 5.089844 L 11.84375 11.554688 C 12.09375 12.113281 12.222656 12.722656 12.222656 13.332031 L 12.222656 18.523438 C 12.21875 19.335938 11.558594 19.996094 10.746094 20 L 4.8125 19.988281 C 4 19.992188 3.335938 19.335938 3.332031 18.523438 L 3.332031 13.332031 C 3.339844 10.882812 5.328125 8.894531 7.777344 8.890625 C 8.722656 8.886719 9.644531 9.195312 10.398438 9.765625 L 14.65625 3.800781 C 15.03125 3.363281 15.679688 3.285156 16.144531 3.621094 C 16.613281 3.953125 16.75 4.59375 16.457031 5.089844 Z M 16.457031 5.089844 "/>
</g>
</svg>
