<?xml version="1.0" encoding="UTF-8"?>
<svg xmlns="http://www.w3.org/2000/svg" xmlns:xlink="http://www.w3.org/1999/xlink" width="12px" height="12px" viewBox="0 0 12 12" version="1.1">
<g id="surface1">
<path style=" stroke:none;fill-rule:nonzero;fill:rgb(20%,11.764706%,40.784314%);fill-opacity:1;" d="M 9.453125 12 L 2.546875 12 C 1.832031 12 1.25 11.417969 1.25 10.703125 L 1.25 1.296875 C 1.25 0.582031 1.832031 0 2.546875 0 L 9.453125 0 C 10.167969 0 10.75 0.582031 10.75 1.296875 L 10.75 8.332031 C 10.75 8.515625 10.601562 8.667969 10.417969 8.667969 C 10.234375 8.667969 10.082031 8.515625 10.082031 8.332031 L 10.082031 1.296875 C 10.082031 0.949219 9.800781 0.667969 9.453125 0.667969 L 2.546875 0.667969 C 2.199219 0.667969 1.917969 0.949219 1.917969 1.296875 L 1.917969 10.703125 C 1.917969 11.050781 2.199219 11.332031 2.546875 11.332031 L 9.453125 11.332031 C 9.800781 11.332031 10.082031 11.050781 10.082031 10.703125 L 10.082031 10 C 10.082031 9.816406 10.234375 9.667969 10.417969 9.667969 C 10.601562 9.667969 10.75 9.816406 10.75 10 L 10.75 10.703125 C 10.75 11.417969 10.167969 12 9.453125 12 Z M 9.453125 12 "/>
<path style=" stroke:none;fill-rule:nonzero;fill:rgb(78.823529%,76.862745%,88.235294%);fill-opacity:1;" d="M 8.632812 4.667969 L 3.367188 4.667969 C 3.164062 4.667969 3 4.503906 3 4.300781 L 3 2.367188 C 3 2.164062 3.164062 2 3.367188 2 L 8.632812 2 C 8.835938 2 9 2.164062 9 2.367188 L 9 4.300781 C 9 4.503906 8.835938 4.667969 8.632812 4.667969 Z M 8.632812 4.667969 "/>
<path style=" stroke:none;fill-rule:nonzero;fill:rgb(20%,11.764706%,40.784314%);fill-opacity:1;" d="M 8.632812 5 L 3.367188 5 C 2.980469 5 2.667969 4.6875 2.667969 4.300781 L 2.667969 2.367188 C 2.667969 1.980469 2.980469 1.667969 3.367188 1.667969 L 8.632812 1.667969 C 9.019531 1.667969 9.332031 1.980469 9.332031 2.367188 L 9.332031 4.300781 C 9.332031 4.6875 9.019531 5 8.632812 5 Z M 3.367188 2.332031 C 3.347656 2.332031 3.332031 2.347656 3.332031 2.367188 L 3.332031 4.300781 C 3.332031 4.320312 3.347656 4.332031 3.367188 4.332031 L 8.632812 4.332031 C 8.652344 4.332031 8.667969 4.316406 8.667969 4.300781 L 8.667969 2.367188 C 8.667969 2.347656 8.652344 2.332031 8.632812 2.332031 Z M 3.367188 2.332031 "/>
<path style=" stroke:none;fill-rule:nonzero;fill:rgb(20%,11.764706%,40.784314%);fill-opacity:1;" d="M 7.214844 7.53125 C 7.128906 7.53125 7.042969 7.5 6.980469 7.433594 C 6.847656 7.304688 6.847656 7.09375 6.980469 6.964844 L 8.09375 5.847656 C 8.222656 5.71875 8.4375 5.71875 8.566406 5.847656 C 8.695312 5.976562 8.695312 6.1875 8.566406 6.320312 L 7.449219 7.433594 C 7.386719 7.5 7.300781 7.53125 7.214844 7.53125 Z M 7.214844 7.53125 "/>
<path style=" stroke:none;fill-rule:nonzero;fill:rgb(20%,11.764706%,40.784314%);fill-opacity:1;" d="M 8.328125 7.53125 C 8.246094 7.53125 8.160156 7.5 8.09375 7.433594 L 6.980469 6.320312 C 6.847656 6.1875 6.847656 5.976562 6.980469 5.847656 C 7.109375 5.71875 7.320312 5.71875 7.449219 5.847656 L 8.566406 6.964844 C 8.695312 7.09375 8.695312 7.304688 8.566406 7.433594 C 8.5 7.5 8.414062 7.53125 8.328125 7.53125 Z M 8.328125 7.53125 "/>
<path style=" stroke:none;fill-rule:nonzero;fill:rgb(20%,11.764706%,40.784314%);fill-opacity:1;" d="M 5.015625 9.863281 L 3.4375 9.863281 C 3.253906 9.863281 3.105469 9.714844 3.105469 9.527344 C 3.105469 9.34375 3.253906 9.195312 3.4375 9.195312 L 5.015625 9.195312 C 5.199219 9.195312 5.351562 9.34375 5.351562 9.527344 C 5.351562 9.714844 5.199219 9.863281 5.015625 9.863281 Z M 5.015625 9.863281 "/>
<path style=" stroke:none;fill-rule:nonzero;fill:rgb(20%,11.764706%,40.784314%);fill-opacity:1;" d="M 4.226562 10.652344 C 4.042969 10.652344 3.894531 10.5 3.894531 10.316406 L 3.894531 8.738281 C 3.894531 8.554688 4.042969 8.40625 4.226562 8.40625 C 4.410156 8.40625 4.5625 8.554688 4.5625 8.738281 L 4.5625 10.316406 C 4.5625 10.5 4.410156 10.652344 4.226562 10.652344 Z M 4.226562 10.652344 "/>
<path style=" stroke:none;fill-rule:nonzero;fill:rgb(20%,11.764706%,40.784314%);fill-opacity:1;" d="M 5.015625 6.976562 L 3.4375 6.976562 C 3.253906 6.976562 3.105469 6.824219 3.105469 6.640625 C 3.105469 6.457031 3.253906 6.308594 3.4375 6.308594 L 5.015625 6.308594 C 5.199219 6.308594 5.351562 6.457031 5.351562 6.640625 C 5.351562 6.824219 5.199219 6.976562 5.015625 6.976562 Z M 5.015625 6.976562 "/>
<path style=" stroke:none;fill-rule:nonzero;fill:rgb(20%,11.764706%,40.784314%);fill-opacity:1;" d="M 8.5625 9.363281 L 6.984375 9.363281 C 6.800781 9.363281 6.648438 9.214844 6.648438 9.027344 C 6.648438 8.84375 6.800781 8.695312 6.984375 8.695312 L 8.5625 8.695312 C 8.746094 8.695312 8.894531 8.84375 8.894531 9.027344 C 8.894531 9.214844 8.746094 9.363281 8.5625 9.363281 Z M 8.5625 9.363281 "/>
<path style=" stroke:none;fill-rule:nonzero;fill:rgb(20%,11.764706%,40.784314%);fill-opacity:1;" d="M 8.5625 10.363281 L 6.984375 10.363281 C 6.800781 10.363281 6.648438 10.214844 6.648438 10.027344 C 6.648438 9.84375 6.800781 9.695312 6.984375 9.695312 L 8.5625 9.695312 C 8.746094 9.695312 8.894531 9.84375 8.894531 10.027344 C 8.894531 10.214844 8.746094 10.363281 8.5625 10.363281 Z M 8.5625 10.363281 "/>
</g>
</svg>
