<?xml version="1.0" encoding="UTF-8"?>
<svg xmlns="http://www.w3.org/2000/svg" xmlns:xlink="http://www.w3.org/1999/xlink" width="20px" height="20px" viewBox="0 0 20 20" version="1.1">
<g id="surface1">
<path style=" stroke:none;fill-rule:nonzero;fill:rgb(5.490196%,13.72549%,47.058824%);fill-opacity:1;" d="M 19.847656 5.859375 L 14.140625 0.152344 C 14.046875 0.0546875 13.914062 0 13.777344 0 L 3.523438 0 C 1.582031 0 0 1.582031 0 3.523438 L 0 16.476562 C 0 18.417969 1.582031 20 3.523438 20 L 16.476562 20 C 18.417969 20 20 18.417969 20 16.476562 L 20 6.222656 C 20 6.085938 19.945312 5.953125 19.847656 5.859375 Z M 14.207031 1.683594 L 18.316406 5.792969 L 14.207031 5.792969 Z M 16.476562 18.960938 L 3.523438 18.960938 C 2.152344 18.960938 1.039062 17.847656 1.039062 16.476562 L 1.039062 3.523438 C 1.039062 2.152344 2.152344 1.039062 3.523438 1.039062 L 13.171875 1.039062 L 13.171875 6.3125 C 13.171875 6.597656 13.402344 6.828125 13.6875 6.828125 L 18.960938 6.828125 L 18.960938 16.476562 C 18.960938 17.847656 17.847656 18.960938 16.476562 18.960938 Z M 16.476562 18.960938 "/>
<path style=" stroke:none;fill-rule:nonzero;fill:rgb(5.490196%,13.72549%,47.058824%);fill-opacity:1;" d="M 8.976562 4.53125 C 8.46875 4.023438 7.796875 3.742188 7.078125 3.742188 C 6.359375 3.742188 5.6875 4.023438 5.179688 4.53125 C 4.671875 5.039062 4.390625 5.710938 4.390625 6.429688 C 4.390625 7.148438 4.671875 7.820312 5.179688 8.328125 L 10.5 13.648438 C 11.1875 14.335938 12.308594 14.335938 12.996094 13.648438 C 13.683594 12.960938 13.683594 11.84375 12.996094 11.15625 L 7.726562 5.886719 C 7.523438 5.683594 7.195312 5.683594 6.992188 5.886719 C 6.789062 6.089844 6.789062 6.417969 6.992188 6.621094 L 12.261719 11.886719 C 12.542969 12.171875 12.542969 12.632812 12.261719 12.917969 C 11.976562 13.199219 11.515625 13.199219 11.234375 12.917969 L 5.914062 7.59375 C 5.601562 7.285156 5.429688 6.871094 5.429688 6.429688 C 5.429688 5.988281 5.601562 5.574219 5.914062 5.265625 C 6.554688 4.621094 7.601562 4.621094 8.242188 5.265625 L 13.820312 10.839844 C 14.820312 11.839844 14.820312 13.46875 13.820312 14.46875 C 13.335938 14.953125 12.691406 15.21875 12.003906 15.21875 C 11.320312 15.21875 10.675781 14.953125 10.191406 14.46875 L 5.90625 10.179688 C 5.703125 9.976562 5.375 9.976562 5.171875 10.179688 C 4.96875 10.382812 4.96875 10.710938 5.171875 10.914062 L 9.457031 15.199219 C 10.136719 15.882812 11.042969 16.257812 12.003906 16.257812 C 12.96875 16.257812 13.871094 15.882812 14.550781 15.199219 C 15.234375 14.519531 15.609375 13.617188 15.609375 12.652344 C 15.609375 11.691406 15.234375 10.785156 14.550781 10.105469 Z M 8.976562 4.53125 "/>
</g>
</svg>
